<svg width="40" height="40" fill="none" xmlns="http://www.w3.org/2000/svg"><g clip-path="url('#clip0_1557_56153')" stroke="#6C757D" stroke-linecap="round" stroke-linejoin="round"><path d="M23.5 16.2c0 2.15-1.93 3.84-4.15 3.44-1.58-.29-2.85-2-2.85-3.61v-1.06c0-1.61 1.26-3.33 2.85-3.61 2.22-.4 4.15 1.29 4.15 3.44v1.4Z"/><path d="M20 31.5c6.351 0 11.5-5.149 11.5-11.5S26.351 8.5 20 8.5 8.5 13.649 8.5 20 13.649 31.5 20 31.5Z"/><path d="M12.16 28.41c1.28-2.88 4.31-4.91 7.84-4.91 3.53 0 6.56 2.03 7.84 4.91"/></g><defs><clipPath id="clip0_1557_56153"><path fill="#fff" transform="translate(8 8)" d="M0 0h24v24H0z"/></clipPath></defs></svg>