<svg width="40" height="40" fill="none" xmlns="http://www.w3.org/2000/svg"><g clip-path="url('#clip0_1557_56188')" stroke="#6C757D" stroke-linecap="round" stroke-linejoin="round"><path d="M20.5 8.5c-3 2-6 3-9 2v11c0 4 6 7 9 10 3-3 9-6 9-10v-11c-3 1-6 0-9-2Z"/><path d="M23.82 19.03h-6.11a.52.52 0 0 0-.52.52v5.22c0 .287.233.52.52.52h6.11a.52.52 0 0 0 .52-.52v-5.22a.52.52 0 0 0-.52-.52ZM23.2 14.8h-4.86v4.23h4.86V14.8Z"/></g><defs><clipPath id="clip0_1557_56188"><path fill="#fff" transform="translate(11 8)" d="M0 0h19v24H0z"/></clipPath></defs></svg>