<svg width="28" height="27" fill="none" xmlns="http://www.w3.org/2000/svg"><path d="M16.957 21.86a.841.841 0 0 1-.841.84h-2.943a.84.84 0 0 1-.84-.84v-5.886a.84.84 0 0 1 1.681 0v5.045h2.102a.84.84 0 0 1 .84.84Zm-6.658-6.57a.843.843 0 0 0-1.173.196L7.71 17.47 6.29 15.485a.84.84 0 0 0-1.537.34.84.84 0 0 0 .17.638l1.751 2.454-1.753 2.454a.84.84 0 0 0 1.367.977l1.42-1.985 1.417 1.985a.84.84 0 0 0 1.366-.977l-1.75-2.454 1.752-2.454a.84.84 0 0 0-.195-1.173Zm10.398 2.713c-.42-.121-.855-.247-1.098-.403-.132-.086-.13-.105-.118-.2a.477.477 0 0 1 .21-.385c.484-.328 1.612-.181 2.083-.06a.841.841 0 0 0 .428-1.626c-.222-.058-2.207-.549-3.45.29a2.163 2.163 0 0 0-.94 1.571c-.211 1.669 1.434 2.145 2.416 2.429 1.268.366 1.38.517 1.343.797-.032.254-.132.35-.226.413-.483.322-1.593.163-2.053.037a.842.842 0 1 0-.451 1.624 6.372 6.372 0 0 0 1.596.21c.612 0 1.293-.105 1.838-.469a2.188 2.188 0 0 0 .965-1.6c.233-1.82-1.504-2.327-2.543-2.628ZM4.766 11.77V4.204a1.682 1.682 0 0 1 1.681-1.682h10.09a.84.84 0 0 1 .594.246l5.885 5.885a.842.842 0 0 1 .246.595v2.522a.84.84 0 0 1-1.681 0V10.09h-5.045a.841.841 0 0 1-.84-.84V4.203H6.447v7.566a.84.84 0 0 1-1.681 0Zm12.611-3.363h3.014l-3.014-3.015v3.015Z" fill="#07C1CF"/></svg>