<svg width="196" height="43" fill="none" xmlns="http://www.w3.org/2000/svg"><path d="M187.783 3.87a4.262 4.262 0 0 1 4.252 4.252 4.262 4.262 0 0 1-4.252 4.252 4.262 4.262 0 0 1-4.252-4.252 4.251 4.251 0 0 1 4.252-4.252Zm0-3.87a8.108 8.108 0 0 0-8.106 8.106 8.108 8.108 0 0 0 8.106 8.107 8.108 8.108 0 0 0 8.106-8.107A8.108 8.108 0 0 0 187.783 0Z" fill="#44ADAD"/><path d="M13.696 43c-2.07 0-3.933-.334-5.622-1.02-1.688-.684-3.121-1.624-4.315-2.85-1.195-1.21-2.119-2.644-2.772-4.3C.32 33.19 0 31.39 0 29.463s.319-3.727.971-5.367a12.805 12.805 0 0 1 2.772-4.3c1.194-1.21 2.643-2.166 4.316-2.85 1.688-.686 3.551-1.02 5.621-1.02 2.07 0 3.934.334 5.622 1.02 1.688.684 3.122 1.64 4.3 2.85a12.854 12.854 0 0 1 2.755 4.3c.653 1.656.972 3.44.972 5.367s-.319 3.727-.972 5.367c-.653 1.656-1.56 3.09-2.755 4.3-1.178 1.21-2.612 2.166-4.3 2.85-1.672.686-3.551 1.02-5.606 1.02Zm-.047-5.797c1.8 0 3.153-.7 4.077-2.118.923-1.418 1.37-3.297 1.37-5.622 0-2.325-.463-4.22-1.37-5.654-.924-1.433-2.278-2.15-4.077-2.15-1.8 0-3.154.717-4.046 2.15-.892 1.434-1.353 3.313-1.353 5.654 0 2.325.446 4.204 1.353 5.622.892 1.417 2.246 2.118 4.046 2.118ZM28.682 16.627h7.852v3.503h.143c.971-1.401 2.07-2.452 3.328-3.169 1.243-.717 2.772-1.067 4.571-1.067 1.402 0 2.644.239 3.743.717a7.931 7.931 0 0 1 2.803 2.006c.764.844 1.353 1.864 1.752 3.042.398 1.179.605 2.485.605 3.918V42.22H45.34V27.233c0-1.37-.335-2.468-1.004-3.296-.669-.829-1.672-1.243-2.994-1.243-1.37 0-2.452.494-3.28 1.498-.813 1.003-1.227 2.293-1.227 3.901v14.143h-8.138v-25.61h-.016ZM68.258 42.952c-2.102 0-3.997-.334-5.701-1.02-1.704-.684-3.138-1.624-4.3-2.85a12.528 12.528 0 0 1-2.692-4.316c-.637-1.672-.955-3.472-.955-5.399 0-1.895.318-3.679.955-5.319.637-1.656 1.53-3.074 2.692-4.3a12.574 12.574 0 0 1 4.14-2.85c1.593-.686 3.377-1.02 5.352-1.02 1.831 0 3.472.287 4.92.844a12.591 12.591 0 0 1 3.823 2.341c1.529 1.402 2.675 3.17 3.424 5.32.749 2.15 1.115 4.523 1.067 7.118H62.62c.271 1.736.86 3.106 1.8 4.093.94 1.004 2.246 1.497 3.95 1.497 1.067 0 1.943-.223 2.643-.669.701-.445 1.227-1.066 1.593-1.879h7.947a9.596 9.596 0 0 1-1.497 3.329c-.733 1.05-1.672 1.959-2.803 2.723a12.21 12.21 0 0 1-3.567 1.752c-1.322.414-2.787.605-4.428.605Zm4.507-16.292c-.159-1.529-.684-2.755-1.544-3.647-.86-.892-1.96-1.354-3.297-1.354-1.56 0-2.771.446-3.6 1.354-.828.892-1.385 2.118-1.656 3.647h10.097Z" fill="#4C4D4F"/><path d="M101.145 43c-2.07 0-3.933-.334-5.59-1.02-1.672-.684-3.09-1.624-4.268-2.85a12.854 12.854 0 0 1-2.755-4.3c-.653-1.656-.972-3.44-.972-5.367s.319-3.727.956-5.367c.637-1.656 1.529-3.074 2.691-4.3 1.163-1.21 2.58-2.166 4.22-2.85 1.657-.686 3.489-1.02 5.527-1.02 1.736 0 3.313.239 4.73.717 1.418.477 2.644 1.162 3.679 2.022a10.1 10.1 0 0 1 2.5 3.106c.637 1.194 1.051 2.516 1.243 3.95h-7.852c-.271-1.163-.748-2.087-1.417-2.772-.685-.685-1.609-1.019-2.771-1.019-1.768 0-3.09.669-3.95 2.023-.86 1.353-1.306 3.185-1.306 5.526 0 2.293.43 4.109 1.306 5.447.86 1.337 2.182 2.006 3.95 2.006 2.596 0 4.077-1.465 4.443-4.395h7.804a11.256 11.256 0 0 1-.972 4.124 9.996 9.996 0 0 1-2.452 3.345c-1.052.956-2.31 1.688-3.807 2.23-1.497.51-3.137.764-4.937.764ZM127.025 43c-2.07 0-3.934-.334-5.622-1.02-1.688-.684-3.121-1.624-4.316-2.85-1.194-1.21-2.118-2.644-2.771-4.3-.653-1.656-.971-3.44-.971-5.367s.318-3.727.971-5.367a12.812 12.812 0 0 1 2.771-4.3c1.195-1.21 2.644-2.166 4.316-2.85 1.688-.686 3.552-1.02 5.622-1.02 2.071 0 3.934.334 5.622 1.02 1.688.684 3.121 1.64 4.3 2.85a12.861 12.861 0 0 1 2.755 4.3c.653 1.656.972 3.44.972 5.367s-.319 3.727-.972 5.367c-.653 1.656-1.561 3.09-2.755 4.3-1.179 1.21-2.612 2.166-4.3 2.85-1.672.686-3.551 1.02-5.622 1.02Zm-.048-5.797c1.8 0 3.154-.7 4.077-2.118.924-1.418 1.37-3.297 1.37-5.622 0-2.325-.462-4.22-1.37-5.654-.923-1.433-2.277-2.15-4.077-2.15-1.799 0-3.153.717-4.045 2.15-.892 1.434-1.354 3.313-1.354 5.654 0 2.325.446 4.204 1.354 5.622.908 1.417 2.246 2.118 4.045 2.118ZM142.027 16.627h7.804v3.997h.143c.892-1.529 1.896-2.643 2.994-3.344 1.099-.701 2.437-1.051 3.998-1.051.764 0 1.306.063 1.592.207v6.991h-.207c-2.5-.366-4.491.064-5.972 1.274-1.481 1.21-2.229 3.217-2.229 6.02V42.22h-8.139V16.627h.016ZM171.761 42.952c-2.102 0-3.997-.334-5.701-1.02-1.704-.684-3.138-1.624-4.3-2.85a12.522 12.522 0 0 1-2.692-4.316c-.637-1.672-.956-3.472-.956-5.399 0-1.895.319-3.679.956-5.319.637-1.656 1.529-3.074 2.692-4.3a12.565 12.565 0 0 1 4.141-2.85c1.592-.686 3.376-1.02 5.351-1.02 1.831 0 3.471.287 4.921.844a12.594 12.594 0 0 1 3.822 2.341c1.529 1.402 2.676 3.17 3.424 5.32.749 2.15 1.115 4.523 1.067 7.118h-18.378c.27 1.736.86 3.106 1.799 4.093.94 1.004 2.246 1.497 3.95 1.497 1.067 0 1.943-.223 2.644-.669.7-.445 1.226-1.066 1.592-1.879h7.947a9.592 9.592 0 0 1-1.497 3.329c-.732 1.05-1.672 1.959-2.803 2.723a12.205 12.205 0 0 1-3.567 1.752c-1.306.414-2.787.605-4.412.605Zm4.491-16.292c-.159-1.529-.684-2.755-1.544-3.647-.86-.892-1.959-1.354-3.297-1.354-1.561 0-2.771.446-3.599 1.354-.829.892-1.386 2.118-1.657 3.647h10.097Z" fill="#44ADAD"/></svg>