<svg width="13" height="21" fill="none" xmlns="http://www.w3.org/2000/svg"><path d="M6.06 19.99a1.9 1.9 0 1 0 0-3.8 1.9 1.9 0 0 0 0 3.8ZM9.35 1.89C7.47.62 4.93.72 3.14 2.12 1.82 3.16 1.06 4.47 1 5.99c0 .71.71 1.28 1.58 1.28.87 0 1.44-.62 1.63-1.2.19-.59.56-1.03 1.13-1.39.65-.41 1.51-.39 2.15.05 1.07.74 1.15 2.23.28 3.11-1.03 1.04-3.62 2.84-3.62 4.55v.64c0 .71.71 1.28 1.58 1.28.87 0 1.31-.38 1.58-1.28.28-.9 2.07-2.09 2.81-2.81 2.38-2.3 2.09-6.35-.8-8.31l.03-.02Z" stroke="#6C757D" stroke-linecap="round" stroke-linejoin="round"/></svg>