<svg width="20" height="20" fill="none" xmlns="http://www.w3.org/2000/svg"><path d="M16.98 9.95c0-.34-.03-.67-.08-.99l1.74-1.63-2.15-3.72-2.28.69c-.52-.41-1.09-.74-1.71-.99L11.96 1h-4.3l-.54 2.31c-.62.25-1.2.59-1.71.99l-2.28-.69L1 7.33l1.74 1.63c-.04.32-.08.65-.08.99 0 .34.03.67.08.99L1 12.57l2.15 3.72 2.28-.69c.52.41 1.09.74 1.71.99l.54 2.31h4.3l.54-2.31c.62-.25 1.2-.59 1.71-.99l2.28.69 2.15-3.72-1.74-1.63c.04-.32.08-.65.08-.99h-.02Z" stroke="#6C757D" stroke-linecap="round" stroke-linejoin="round"/><path d="M9.82 12.63a2.68 2.68 0 1 0 0-5.36 2.68 2.68 0 0 0 0 5.36Z" stroke="#6C757D" stroke-linecap="round" stroke-linejoin="round"/></svg>